PathFileType	4	(X/Y/Z)	S01_0014_Gait_markers.trc
DataRate	CameraRate	NumFrames	NumMarkers	Units	OrigDataRate	OrigDataStartFrame	OrigNumFrames
250.000000	250.000000	4	54	mm	250.000000	183	367
Frame#	Time	HEAD_ANT			R_HEAD			L_HEAD			C7			R_BACK			L_BACK			STERNUM			R_ACROMION			R_HUM_PROX			R_HUM_ANT			R_HUM_POST			R_ELBOW_LAT			R_ELBOW_MED			R_FOREARM			R_WIRST_LAT			R_WRITS_MED			R_HAND			L_ACROMION			L_HUM_PROX			L_HUM_ANT			L_HUM_POST			L_ELBOW_LAT			L_ELBOW_MED			L_FOREARM			L_WRIST_LAT			L_WIRST_MED			L_HAND			R_ILIAC			SACRUM			L_ILIAC			R_GTROCH			R_THIGH__1			R_THIGH_2			R_THIGH_3			R_THIGH_4			R_SHANK_1			R_SHANK_2			R_SHANK_3			R_SHANK_4			R_HEEL			R_FOOT_LAT			R_FOOT_MED			L_GTROCH			L_THIGH_1			L_THIGH_2			L_THIGH_3			L_THIGH_4			L_SHANK_1			L_SHANK_2			L_SHANK_3			L_SHANK_4			L_HEEL			L_FOOT_LAT			L_FOOT_MED			
		X1	Y1	Z1	X2	Y2	Z2	X3	Y3	Z3	X4	Y4	Z4	X5	Y5	Z5	X6	Y6	Z6	X7	Y7	Z7	X8	Y8	Z8	X9	Y9	Z9	X10	Y10	Z10	X11	Y11	Z11	X12	Y12	Z12	X13	Y13	Z13	X14	Y14	Z14	X15	Y15	Z15	X16	Y16	Z16	X17	Y17	Z17	X18	Y18	Z18	X19	Y19	Z19	X20	Y20	Z20	X21	Y21	Z21	X22	Y22	Z22	X23	Y23	Z23	X24	Y24	Z24	X25	Y25	Z25	X26	Y26	Z26	X27	Y27	Z27	X28	Y28	Z28	X29	Y29	Z29	X30	Y30	Z30	X31	Y31	Z31	X32	Y32	Z32	X33	Y33	Z33	X34	Y34	Z34	X35	Y35	Z35	X36	Y36	Z36	X37	Y37	Z37	X38	Y38	Z38	X39	Y39	Z39	X40	Y40	Z40	X41	Y41	Z41	X42	Y42	Z42	X43	Y43	Z43	X44	Y44	Z44	X45	Y45	Z45	X46	Y46	Z46	X47	Y47	Z47	X48	Y48	Z48	X49	Y49	Z49	X50	Y50	Z50	X51	Y51	Z51	X52	Y52	Z52	X53	Y53	Z53	X54	Y54	Z54	

184	0.732	995.6062622070312	1702.578735351562	-320.2238769531246	937.352294921875	1656.182250976562	-240.1084136962887	935.3458251953125	1651.425659179688	-387.2287292480465	796.2779541015625	1484.158813476562	-305.972991943359	726.2244262695312	1290.341064453125	-231.6749114990232	722.37060546875	1289.163330078125	-369.7777099609372	973.9584350585938	1320.893188476562	-315.6859741210935	885.1624755859375	1432.828857421875	-138.1527099609372	867.2862548828125	1272.535400390625	-45.00043106079073	935.0827026367188	1191.480224609375	-51.60910797119114	816.0946044921875	1184.902587890625	-24.34747314453099	870.9863891601562	1082.111206054688	-24.71060943603491	837.66455078125	1074.766967773438	-101.0595550537107	998.8174438476562	916.2549438476562	-41.42459487915018	1041.853271484375	859.6320190429688	-86.712692260742	984.5045776367188	823.6062622070312	-41.51234817504864	1068.623046875	774.8087158203125	-34.61274719238264	866.1270141601562	1439.460083007812	-477.3804321289059	830.6427612304688	1273.337280273438	-570.3156127929685	892.1251220703125	1193.044799804688	-581.1378173828123	767.2308959960938	1196.0087890625	-585.9115600585935	818.5840454101562	1092.034057617188	-604.5205078124998	783.3765869140625	1083.091552734375	-536.2502441406248	933.933349609375	922.1762695312501	-620.5544433593748	982.0062255859375	863.1039428710939	-578.8024291992185	923.051513671875	839.2183227539064	-626.6846923828123	1001.836730957031	784.3699951171876	-632.769592285156	868.279052734375	1034.737060546875	-132.2499694824216	742.8770751953125	1008.392883300781	-305.4341735839841	860.8311157226562	1030.280029296875	-479.4081115722654	805.5408935546875	905.7365112304688	-122.6002960205076	753.790283203125	640.9598388671875	-138.6123657226561	812.2377319335938	638.3225708007812	-133.9346466064452	784.043212890625	539.38525390625	-165.1435089111327	725.051513671875	565.396240234375	-158.4829101562499	602.0501098632812	371.8445434570313	-150.0911407470702	637.54296875	326.3949584960938	-165.9025115966796	589.3172607421875	256.2123718261719	-183.5218658447265	539.0379028320312	293.1121520996094	-171.1821136474609	392.6386108398438	140.0562133789063	-246.6829071044922	516.7412109375	26.68651199340824	-171.7236328125	575.5476684570312	27.96219444274908	-268.858154296875	843.1026611328125	917.4342651367189	-487.6893310546873	1029.603515625	671.5903320312501	-468.8596801757811	973.590576171875	669.8085327148439	-489.1385192871092	993.8319702148438	570.4408569335939	-452.0418395996093	1050.698486328125	597.6251220703126	-438.6102600097655	1105.162719726562	333.4220275878907	-438.7067260742187	1056.930908203125	296.0646057128907	-441.9355163574218	1079.33544921875	212.9422912597657	-426.2832031249999	1137.778198242188	237.9398040771485	-417.5981750488281	1088.54052734375	33.87386322021492	-356.8653564453125	1265.504150390625	36.41064453125009	-423.1698303222656	1299.785034179688	58.7304878234864	-327.1433410644531	
185	0.736	1001.07470703125	1702.943115234375	-321.2572937011715	942.7716064453125	1656.331176757812	-241.0927886962887	940.71142578125	1651.597045898438	-388.3609924316403	801.9653930664062	1484.076416015625	-306.943939208984	732.0901489257812	1290.240234375	-232.7756500244138	728.2555541992188	1289.126953125	-370.6305541992185	979.9755249023438	1321.073852539062	-316.7979431152341	890.900146484375	1432.856689453125	-139.03645324707	872.9239501953125	1272.375122070312	-45.92284774780245	940.576171875	1191.33837890625	-52.64104461669896	821.5015869140625	1184.8798828125	-25.5521450042722	876.1879272460938	1081.886108398438	-25.74320411682105	843.0117797851562	1074.549438476562	-102.101020812988	1003.68115234375	915.683837890625	-42.2991714477537	1046.744506835938	858.9053955078125	-87.35797119140607	989.1923828125	823.0717163085938	-42.29984664916974	1072.978759765625	774.0531005859375	-35.27630996704085	871.717041015625	1439.289428710938	-478.643157958984	836.6537475585938	1273.026245117188	-571.1330566406248	898.2921752929688	1192.770385742188	-582.029846191406	773.363037109375	1195.658081054688	-586.6312255859373	824.8232421875	1091.613525390625	-605.2819213867185	789.73046875	1082.67431640625	-536.9538574218748	939.8236083984375	921.3870239257814	-621.6990966796873	987.8748168945312	862.1881713867189	-579.946838378906	928.5647583007812	838.7445678710939	-627.979309082031	1007.366333007812	783.7663574218751	-634.1370849609373	874.4551391601562	1034.33154296875	-132.8444671630857	749.1065673828125	1008.685485839844	-305.7460021972654	867.3333129882812	1030.242431640625	-480.0697021484373	811.9754638671875	905.11376953125	-123.1560668945311	760.8869018554688	640.26220703125	-139.2613830566405	819.2955932617188	637.7670288085938	-134.3082733154295	791.22900390625	538.80908203125	-165.8879241943358	732.3656005859375	564.6322631835938	-158.9985351562499	608.2291870117188	372.8782043457032	-149.8116912841796	643.1544799804688	326.6232299804688	-165.8022308349609	593.9986572265625	257.0691528320313	-182.963638305664	544.1758422851562	295.1203002929688	-170.4359436035156	395.8417053222656	143.8859863281251	-245.5263519287109	517.5697631835938	27.37310791015629	-171.6636505126953	575.6222534179688	27.93596839904791	-268.85107421875	849.6257934570312	918.0179443359376	-488.7119140624998	1036.569458007812	672.4343872070314	-469.0363464355467	980.2330322265625	670.7387084960939	-489.1415710449217	1000.506652832031	571.2901000976564	-452.4384765624999	1057.46337890625	598.4111328125001	-438.4698791503905	1111.004638671875	333.8320312500001	-438.4875793457031	1062.256713867188	297.0342102050782	-442.1609497070312	1083.944091796875	213.6793212890626	-426.4379882812499	1142.63671875	237.978500366211	-417.5545043945312	1089.647583007812	34.57707595825203	-356.9363403320312	1266.779663085938	34.3282012939454	-422.9692687988281	1301.067016601562	55.79052734375007	-326.8060607910156	
186	0.74	1006.479797363281	1703.345581054688	-322.393890380859	948.1485595703125	1656.77783203125	-242.2361450195309	946.3231811523438	1651.895629882812	-389.4293823242184	807.6883544921875	1484.15869140625	-308.0130615234372	738.6361694335938	1289.997802734375	-234.0980224609372	734.1499633789062	1289.034912109375	-371.2640075683591	985.967529296875	1321.318481445312	-317.2065429687497	896.5571899414062	1433.004516601562	-139.8974761962887	878.4407348632812	1272.37841796875	-46.94789505004854	946.0197143554688	1191.20263671875	-53.55180740356419	827.0008544921875	1184.946166992188	-26.64692306518528	881.5193481445312	1081.82568359375	-27.03986358642554	848.5162963867188	1074.487426757812	-103.3782043457029	1008.529418945312	915.181396484375	-42.97989654540995	1051.54248046875	858.25830078125	-87.978805541992	993.74267578125	822.660400390625	-43.16160583496075	1077.386352539062	773.27099609375	-35.80739212036116	877.4558715820312	1439.086303710938	-479.3772583007809	842.6148681640625	1272.747436523438	-571.890197753906	904.3389282226562	1192.717651367188	-583.112854003906	779.4041137695312	1195.322387695313	-587.5023193359373	831.0213623046875	1091.253662109375	-606.101135253906	795.99169921875	1082.300048828125	-537.8470458984373	945.52197265625	920.8467407226564	-622.8847045898435	993.6860961914062	861.5205078125001	-581.1751708984373	934.15625	838.2383422851564	-628.757873535156	1012.584228515625	783.0241088867189	-635.5440673828123	881.8453979492188	1034.181518554688	-133.4221954345701	755.434326171875	1009.011779785156	-305.9709167480466	873.7554931640625	1030.249267578125	-480.8116455078123	818.373291015625	904.3292236328125	-123.7633895874021	768.0874633789062	639.4450073242188	-140.0670166015624	826.6318359375	637.2296142578125	-135.1753997802733	798.8552856445312	538.07666015625	-166.6253814697264	739.83642578125	563.8428955078125	-159.643585205078	614.5621948242188	373.4277954101563	-149.8666839599609	648.9478759765625	326.8793334960938	-165.6315612792968	598.8456420898438	257.8125915527344	-182.7442779541015	549.509521484375	296.2106628417969	-170.5016174316406	399.1891479492188	147.8400421142579	-244.524429321289	518.4581298828125	28.20956611633305	-171.6062927246094	575.7172241210938	27.90497207641608	-268.9027099609375	856.3612060546875	918.9191284179689	-489.5351562499998	1043.985961914062	675.7078857421876	-468.9855041503905	986.6240234375	671.3314208984376	-488.9650573730467	1007.419799804688	572.2908325195314	-452.3306579589843	1064.31494140625	599.3457641601564	-438.7699890136718	1116.866943359375	334.1250915527345	-438.4382629394531	1067.762817382812	298.0938110351564	-442.7315063476562	1088.069580078125	214.3841247558595	-426.8356018066406	1147.030029296875	237.8236389160157	-417.3514709472656	1090.534057617188	35.37401580810555	-357.0354919433594	1267.967651367188	31.82422256469736	-422.5664672851562	1302.082763671875	52.92681884765632	-326.3392333984375	
187	0.744	1012.013977050781	1703.733520507812	-323.383880615234	953.7431640625	1657.310302734375	-243.0709838867184	951.9088134765625	1652.221435546875	-390.4623718261715	813.494384765625	1484.401733398438	-309.0070190429684	743.9862670898438	1290.1484375	-235.1194152832028	739.9194946289062	1289.174560546875	-372.3343505859372	991.9990844726562	1321.644775390625	-318.394104003906	902.2391967773438	1433.206420898438	-140.7550811767575	883.9810180664062	1272.513427734375	-47.80646133422823	951.4807739257812	1191.21484375	-54.45767974853489	832.385009765625	1185.086059570312	-27.78132820129368	886.8759765625	1081.900390625	-28.3689861297605	853.9819946289062	1074.52490234375	-104.7110214233396	1013.270202636719	914.73486328125	-43.83464813232401	1056.2158203125	857.84814453125	-88.63491821289044	998.2301025390625	822.3499755859375	-43.90722656249982	1081.755004882812	772.6585083007812	-36.40947341918928	883.2442016601562	1439.064086914062	-480.410003662109	848.5707397460938	1272.619018554688	-572.7138061523435	910.56005859375	1192.608154296875	-583.6711425781248	785.533935546875	1194.971801757813	-588.2938842773435	837.2510375976562	1091.137451171875	-606.7508544921873	802.3399658203125	1081.995849609375	-538.383361816406	951.7491455078125	920.4017944335939	-623.6354370117185	999.18115234375	860.9808959960939	-582.198303222656	939.6746826171875	837.8272094726564	-629.9571533203123	1018.127075195312	782.5300292968751	-636.7810058593748	889.7147216796875	1033.883666992188	-133.8672027587888	761.6937255859375	1009.497253417969	-306.2206115722654	879.8072509765625	1030.52734375	-481.5837707519529	824.8961181640625	903.8002319335938	-124.2154693603514	775.6442260742188	638.7267456054688	-141.0456237792967	834.1959838867188	636.6124267578125	-136.666549682617	806.660888671875	537.3768310546875	-167.4161834716796	747.5030517578125	562.8692016601562	-160.4365386962889	621.1600341796875	374.3387451171876	-149.7511596679687	654.867919921875	327.3535461425782	-165.6178131103515	603.99072265625	259.0062866210938	-182.6253204345703	555.2117919921875	298.2277526855469	-169.6691131591796	402.9004821777344	151.8652038574219	-243.356948852539	519.4049072265625	29.17694664001469	-171.5765686035156	575.8274536132812	27.84313774108893	-268.9823913574219	863.032470703125	920.0672607421876	-490.2483215332029	1050.883666992188	676.9072265625001	-468.9600524902342	992.7975463867188	671.7316894531251	-487.5630493164061	1014.41943359375	573.3103637695314	-452.9002990722655	1071.29638671875	600.4016723632814	-438.937774658203	1122.352294921875	334.5072631835939	-438.8319396972656	1072.667724609375	298.9461975097657	-443.1657409667968	1092.001342773438	214.9690399169923	-427.2781066894531	1151.041381835938	237.5232696533204	-417.1720275878906	1091.1875	36.09304046630867	-357.4199829101562	1268.698608398438	29.05074501037607	-422.0584716796875	1302.898803710938	50.14921569824226	-325.7795104980469	
